# xmcd
# 
# Track frame offsets:
#     150
#     16998
#     35821
#     52857
# 
# Disc length: 942
# 
# Revision: 3
# Processed by: cddbd v1.5.2PL0 Copyright (c) Steve Scherf et al.
# Submitted via: fre:ac v1.1beta1pre2
# 
DISCID=2903ac04
DTITLE=Various Artist - 日常のキャラクターソング その5 相生祐子
DYEAR=2011
DGENRE=Anime
TTITLE0=相生祐子(CV本多真梨子) - ゆっこのスラマッパギだよ人生は
TTITLE1=相生祐子(CV本多真梨子) - ゆっこのギャグ百連発
TTITLE2=前山田健一 - ゆっこのスラマッパギだよ人生は off vocal
TTITLE3=前山田健一 - ゆっこのギャグ百連発 off vocal
EXTD=
EXTT0=
EXTT1=
EXTT2=
EXTT3=
PLAYORDER=
